<svg width="1181" height="500" viewBox="0 0 1181 500" fill="none" xmlns="http://www.w3.org/2000/svg">
<rect width="1181" height="500" rx="35" fill="black"/>
<path d="M370.459 303.1C375.952 316.054 381.327 328.7 387 342.051C376.863 342.051 367.323 342.105 357.784 342.026C353.537 341.99 348.345 343.105 345.317 341.09C342.429 339.169 341.785 333.862 340.176 330.034C337.788 324.348 335.419 318.654 332.974 312.8C315.077 312.8 297.274 312.8 278.934 312.8C281.069 307.535 283.037 302.647 285.033 297.77C287.858 290.865 290.582 283.913 293.653 277.119C294.224 275.856 296.195 274.521 297.58 274.454C303.584 274.162 309.61 274.329 316.222 274.329C309.944 259.51 303.869 245.169 297.429 229.967C295.854 233.501 294.557 236.251 293.389 239.056C279.65 272.041 265.882 305.014 252.288 338.058C251.047 341.074 249.608 342.091 246.366 342.037C234.01 341.833 221.648 341.955 208.887 341.955C209.138 340.993 209.263 340.083 209.606 339.263C234.431 279.967 259.287 220.684 284.061 161.367C285.029 159.049 286.098 158.073 288.733 158.182C294.474 158.42 300.238 158.409 305.98 158.183C308.748 158.074 309.885 159.087 310.935 161.597C328.311 203.147 345.812 244.645 363.289 286.153C365.627 291.705 367.988 297.247 370.459 303.1Z" fill="#FCFCFC"/>
<path d="M183.025 261.059C189.889 277.507 196.717 293.613 203.319 309.811C204.019 311.53 203.975 314.021 203.285 315.76C199.795 324.552 195.977 333.214 192.186 342.129C187.251 342.129 182.348 342.398 177.509 341.959C176.115 341.833 174.34 339.91 173.695 338.402C164.733 317.431 155.923 296.394 147.102 275.363C131.345 237.794 115.605 200.218 99.8578 162.644C99.3169 161.354 98.7782 160.062 98 158.201C111.808 158.201 125.009 158.123 138.205 158.345C139.293 158.364 140.789 160.239 141.349 161.566C153.33 189.971 165.202 218.421 177.098 246.861C179.035 251.49 180.981 256.115 183.025 261.059Z" fill="#FCFCFC"/>
<path d="M268.866 159.735C250.205 204.162 231.709 248.297 212.9 293.182C205.843 276.705 199.097 261.051 192.502 245.334C192.048 244.253 192.429 242.576 192.921 241.381C203.77 214.992 214.731 188.649 225.538 162.243C226.78 159.208 228.181 157.902 231.751 158.006C243.091 158.335 254.445 158.124 265.793 158.232C266.876 158.242 267.952 159.02 268.866 159.735Z" fill="#FDFDFD"/>
<path d="M514.331 205.144L482.459 295H455.067L423.195 205.144H446.491L468.763 272.984L491.163 205.144H514.331ZM590.679 234.072C590.679 239.277 589.484 244.056 587.095 248.408C584.705 252.675 581.036 256.131 576.087 258.776C571.137 261.421 564.993 262.744 557.655 262.744H544.087V295H522.199V205.144H557.655C564.823 205.144 570.881 206.381 575.831 208.856C580.78 211.331 584.492 214.744 586.967 219.096C589.441 223.448 590.679 228.44 590.679 234.072ZM555.991 245.336C560.172 245.336 563.287 244.355 565.335 242.392C567.383 240.429 568.407 237.656 568.407 234.072C568.407 230.488 567.383 227.715 565.335 225.752C563.287 223.789 560.172 222.808 555.991 222.808H544.087V245.336H555.991ZM633.306 295.896C626.735 295.896 620.847 294.829 615.642 292.696C610.436 290.563 606.255 287.405 603.098 283.224C600.026 279.043 598.404 274.008 598.234 268.12H621.53C621.871 271.448 623.023 274.008 624.986 275.8C626.948 277.507 629.508 278.36 632.666 278.36C635.908 278.36 638.468 277.635 640.346 276.184C642.223 274.648 643.162 272.557 643.162 269.912C643.162 267.693 642.394 265.859 640.858 264.408C639.407 262.957 637.572 261.763 635.354 260.824C633.22 259.885 630.148 258.819 626.138 257.624C620.335 255.832 615.599 254.04 611.93 252.248C608.26 250.456 605.103 247.811 602.458 244.312C599.812 240.813 598.49 236.248 598.49 230.616C598.49 222.253 601.519 215.725 607.578 211.032C613.636 206.253 621.53 203.864 631.258 203.864C641.156 203.864 649.135 206.253 655.194 211.032C661.252 215.725 664.495 222.296 664.922 230.744H641.242C641.071 227.843 640.004 225.581 638.042 223.96C636.079 222.253 633.562 221.4 630.49 221.4C627.844 221.4 625.711 222.125 624.09 223.576C622.468 224.941 621.658 226.947 621.658 229.592C621.658 232.493 623.023 234.755 625.754 236.376C628.484 237.997 632.751 239.747 638.554 241.624C644.356 243.587 649.05 245.464 652.634 247.256C656.303 249.048 659.46 251.651 662.106 255.064C664.751 258.477 666.074 262.872 666.074 268.248C666.074 273.368 664.751 278.019 662.106 282.2C659.546 286.381 655.791 289.709 650.842 292.184C645.892 294.659 640.047 295.896 633.306 295.896ZM734.2 279.128H700.664L695.288 295H672.376L704.888 205.144H730.232L762.744 295H739.576L734.2 279.128ZM728.568 262.232L717.432 229.336L706.424 262.232H728.568ZM793.247 278.104H821.919V295H771.359V205.144H793.247V278.104ZM852.967 222.68V240.856H882.279V257.752H852.967V277.464H886.119V295H831.079V205.144H886.119V222.68H852.967ZM944.873 295L926.185 261.08H920.937V295H899.049V205.144H935.785C942.867 205.144 948.883 206.381 953.833 208.856C958.867 211.331 962.622 214.744 965.097 219.096C967.571 223.363 968.809 228.141 968.809 233.432C968.809 239.405 967.102 244.739 963.689 249.432C960.361 254.125 955.411 257.453 948.841 259.416L969.577 295H944.873ZM920.937 245.592H934.505C938.515 245.592 941.502 244.611 943.465 242.648C945.513 240.685 946.537 237.912 946.537 234.328C946.537 230.915 945.513 228.227 943.465 226.264C941.502 224.301 938.515 223.32 934.505 223.32H920.937V245.592ZM1045.91 205.144V222.68H1022.1V295H1000.21V222.68H976.405V205.144H1045.91Z" fill="white"/>
</svg>
