<svg width="500" height="500" viewBox="0 0 500 500" fill="none" xmlns="http://www.w3.org/2000/svg">
<rect width="500" height="500" rx="35" fill="black"/>
<path d="M377.459 303.1C382.952 316.054 388.327 328.7 394 342.051C383.863 342.051 374.323 342.105 364.784 342.026C360.537 341.99 355.345 343.105 352.317 341.09C349.429 339.169 348.785 333.862 347.176 330.034C344.788 324.348 342.419 318.654 339.974 312.8C322.077 312.8 304.274 312.8 285.934 312.8C288.069 307.535 290.037 302.647 292.033 297.77C294.858 290.865 297.582 283.913 300.653 277.119C301.224 275.856 303.195 274.521 304.58 274.454C310.584 274.162 316.61 274.329 323.222 274.329C316.944 259.51 310.869 245.169 304.429 229.967C302.854 233.501 301.557 236.251 300.389 239.056C286.65 272.041 272.882 305.014 259.288 338.058C258.047 341.074 256.608 342.091 253.366 342.037C241.01 341.833 228.648 341.955 215.887 341.955C216.138 340.993 216.263 340.083 216.606 339.263C241.431 279.967 266.287 220.684 291.061 161.367C292.029 159.049 293.098 158.073 295.733 158.182C301.474 158.42 307.238 158.409 312.98 158.183C315.748 158.074 316.885 159.087 317.935 161.597C335.311 203.147 352.812 244.645 370.289 286.153C372.627 291.705 374.988 297.247 377.459 303.1Z" fill="#FCFCFC"/>
<path d="M190.025 261.059C196.889 277.507 203.717 293.613 210.319 309.811C211.019 311.53 210.975 314.021 210.285 315.76C206.795 324.552 202.977 333.214 199.186 342.129C194.251 342.129 189.348 342.398 184.509 341.959C183.115 341.833 181.34 339.91 180.695 338.402C171.733 317.431 162.923 296.394 154.102 275.363C138.345 237.794 122.605 200.218 106.858 162.644C106.317 161.354 105.778 160.062 105 158.201C118.808 158.201 132.009 158.123 145.205 158.345C146.293 158.364 147.789 160.239 148.349 161.566C160.33 189.971 172.202 218.421 184.098 246.861C186.035 251.49 187.981 256.115 190.025 261.059Z" fill="#FCFCFC"/>
<path d="M275.866 159.735C257.205 204.162 238.709 248.297 219.9 293.182C212.843 276.705 206.097 261.051 199.502 245.334C199.048 244.253 199.429 242.576 199.921 241.381C210.77 214.992 221.731 188.649 232.538 162.243C233.78 159.208 235.181 157.902 238.751 158.006C250.091 158.335 261.445 158.124 272.793 158.232C273.876 158.242 274.952 159.02 275.866 159.735Z" fill="#FDFDFD"/>
</svg>
