<svg width="1024" height="1024" viewBox="0 0 1024 1024" fill="none" xmlns="http://www.w3.org/2000/svg">
<g clip-path="url(#clip0_389_2)">
<path d="M474 1025C316 1025 158.5 1025 1 1025C1 683.667 1 342.333 1 1C342.333 1 683.667 1 1025 1C1025 342.333 1025 683.667 1025 1025C841.5 1025 658 1025 474 1025ZM667.091 509.297C664.366 502.868 661.629 496.445 658.919 490.01C638.662 441.9 618.378 393.802 598.238 345.643C597.021 342.733 595.703 341.559 592.496 341.686C585.84 341.947 579.16 341.96 572.505 341.684C569.452 341.558 568.213 342.689 567.09 345.376C538.376 414.128 509.567 482.84 480.794 551.568C480.396 552.517 480.251 553.573 479.959 554.687C494.75 554.687 509.078 554.545 523.4 554.782C527.157 554.844 528.825 553.666 530.263 550.171C546.02 511.871 561.978 473.653 577.902 435.422C579.255 432.171 580.759 428.983 582.585 424.887C590.049 442.507 597.09 459.129 604.367 476.305C596.703 476.305 589.719 476.112 582.76 476.45C581.155 476.528 578.87 478.075 578.208 479.539C574.648 487.414 571.492 495.471 568.216 503.474C565.903 509.127 563.622 514.793 561.148 520.895C582.405 520.895 603.039 520.895 623.783 520.895C626.617 527.68 629.362 534.28 632.131 540.87C633.995 545.307 634.742 551.458 638.089 553.685C641.599 556.02 647.616 554.728 652.539 554.769C663.595 554.862 674.652 554.798 686.402 554.798C679.826 539.325 673.597 524.666 667.091 509.297ZM449.865 460.558C447.615 455.195 445.359 449.834 443.114 444.468C429.326 411.504 415.565 378.53 401.679 345.607C401.03 344.069 399.296 341.895 398.035 341.874C382.74 341.616 367.439 341.707 351.435 341.707C352.337 343.864 352.962 345.361 353.589 346.857C371.84 390.406 390.084 433.959 408.347 477.503C418.572 501.88 428.782 526.262 439.17 550.569C439.917 552.317 441.974 554.546 443.591 554.692C449.199 555.201 454.882 554.889 460.602 554.889C464.996 544.556 469.421 534.516 473.466 524.326C474.266 522.31 474.317 519.424 473.505 517.431C465.854 498.657 457.939 479.989 449.865 460.558ZM549.669 343.145C548.418 342.656 547.172 341.754 545.916 341.742C532.764 341.617 519.603 341.862 506.459 341.48C502.322 341.36 500.698 342.874 499.258 346.391C486.732 376.997 474.027 407.53 461.453 438.117C460.884 439.502 460.442 441.446 460.967 442.699C468.611 460.916 476.431 479.059 484.61 498.157C506.411 446.133 527.848 394.978 549.669 343.145ZM764.891 641.571C762.374 638.471 759.596 635.543 757.404 632.228C754.507 627.848 750.775 627.565 746.594 628.693C746.594 643.268 746.594 657.492 746.594 671.738C749.667 671.738 752.294 671.738 755.773 671.738C755.773 662.951 755.773 654.34 755.773 644.447C762.633 652.89 768.66 659.993 774.307 667.387C777.256 671.249 780.439 673.153 785.457 671.206C785.457 657.08 785.457 642.854 785.457 628.478C782.434 628.478 779.707 628.478 776.233 628.478C776.233 637.239 776.233 645.754 776.233 655.607C771.948 650.324 768.631 646.234 764.891 641.571ZM643.948 646.221C645.127 647.091 646.532 647.772 647.447 648.863C652.578 654.988 657.817 661.045 662.562 667.463C665.515 671.456 668.762 673.058 673.684 671.323C673.684 657.163 673.684 642.929 673.684 628.452C670.655 628.452 667.911 628.452 664.438 628.452C664.438 637.099 664.438 645.597 664.438 655.474C657.474 646.987 651.269 639.869 645.606 632.343C642.65 628.415 639.367 627.387 634.87 628.65C634.87 643.03 634.87 657.387 634.87 671.707C637.921 671.707 640.525 671.707 643.792 671.707C643.792 663.355 643.792 655.227 643.948 646.221ZM482.707 671.951C484.328 671.951 485.949 671.951 488.11 671.951C488.11 667.521 488.11 663.468 488.11 659.82C495.286 657.521 499.377 660.163 502.812 665.998C507.131 673.335 507.548 673.09 516.2 671.139C513.24 666.638 510.344 662.234 507.462 657.851C514.94 651.855 517.374 645.432 514.963 638.383C512.797 632.049 506.795 628.524 497.596 628.366C491.453 628.261 485.307 628.346 478.622 628.346C478.622 630.115 478.614 631.746 478.623 633.378C478.689 645.543 478.708 657.709 478.953 669.87C478.967 670.583 480.813 671.258 482.707 671.951ZM618.389 634.106C604.338 622.408 583.497 627.544 578.951 643.825C576.003 654.381 580.636 665.1 590.256 669.981C600.689 675.275 613.563 672.643 620.521 663.795C627.332 655.133 626.702 643.83 618.389 634.106ZM825.374 671.956C827.161 671.956 828.948 671.956 830.835 671.956C830.835 669.188 830.835 666.939 830.835 664.293C822.855 664.293 815.112 664.293 807.209 664.293C807.209 660.453 807.209 657.013 807.209 653.061C813.971 653.061 820.543 653.061 827.051 653.061C827.051 650.43 827.051 648.313 827.051 645.909C820.376 645.909 813.907 645.909 807.335 645.909C807.335 642.393 807.335 639.179 807.335 635.611C815.08 635.611 822.489 635.611 829.924 635.611C829.924 632.971 829.924 630.693 829.924 628.428C819.21 628.428 808.754 628.428 798.112 628.428C798.112 643.028 798.112 657.402 798.112 671.959C807.097 671.959 815.75 671.959 825.374 671.956ZM467.98 629.75C467.439 629.25 466.902 628.318 466.357 628.313C456.243 628.226 446.128 628.249 435.984 628.249C435.984 643.073 435.984 657.413 435.984 671.634C447.203 671.634 457.962 671.634 468.694 671.634C468.694 669.065 468.694 666.836 468.694 664.114C460.656 664.114 452.933 664.114 445.24 664.114C445.24 660.332 445.24 657.062 445.24 653.389C451.921 653.389 458.357 653.389 465.026 653.389C465.026 650.735 465.026 648.492 465.026 645.774C458.215 645.774 451.643 645.774 445.261 645.774C445.261 642.213 445.261 639.131 445.261 635.601C453 635.601 460.408 635.601 467.987 635.601C467.987 633.643 467.987 632.15 467.98 629.75ZM298.798 644.365C298.056 634.735 294.07 629.838 284.544 628.869C277.168 628.119 269.656 628.719 262.123 628.719C262.123 642.994 262.123 657.35 262.123 671.577C265.291 671.577 268.032 671.577 271.099 671.577C271.099 667.461 271.099 663.678 271.099 659.716C275.552 659.516 279.693 659.509 283.796 659.111C292.761 658.24 297.076 654.128 298.798 644.365ZM379.992 670.859C383.126 671.323 386.259 671.786 390.309 672.384C383.749 657.625 377.706 643.806 371.436 630.091C369.974 626.893 362.3 627.338 360.743 630.603C358.383 635.551 356.243 640.605 354.002 645.61C350.149 654.218 346.29 662.824 342.066 672.251C346.269 670.849 351.256 674.654 352.852 668.686C354.367 663.018 357.662 660.99 363.258 661.991C364.55 662.222 365.955 662.236 367.243 661.997C374.023 660.736 378.304 663.167 379.992 670.859ZM316.334 636.8C322.768 633.181 328.85 635.829 335.151 638.16C336.034 635.838 336.837 633.727 337.619 631.668C332.337 628.214 326.179 627.021 318.802 627.917C310.817 628.888 305.701 633.5 305.221 640.161C304.763 646.531 308.474 650.684 316.722 653.031C320.237 654.031 323.861 654.768 327.214 656.158C328.62 656.741 330.45 658.836 330.299 660.012C330.099 661.563 328.386 663.33 326.863 664.182C325.39 665.005 323.243 665.26 321.551 664.934C316.777 664.014 312.085 662.668 307.122 661.43C306.479 663.088 305.665 665.184 304.778 667.469C313.384 672.721 322.118 674.136 331.312 670.846C337.051 668.792 340.133 664.08 339.944 658.697C339.763 653.52 337.007 650.135 330.903 648.137C326.959 646.846 322.835 646.107 318.9 644.795C315.278 643.587 313.015 641.428 316.334 636.8ZM250.632 641.277C252.313 637.174 253.995 633.071 255.71 628.886C247.444 627.58 247.432 627.575 244.542 634.136C240.883 642.446 237.248 650.766 233.218 659.957C229.579 651.441 226.245 643.704 222.967 635.944C219.51 627.758 219.534 627.748 209.753 628.498C215.486 641.953 221.258 655.169 226.705 668.518C228.005 671.706 229.955 672.04 232.84 672.022C235.684 672.003 237.781 671.836 239.057 668.598C242.59 659.635 246.508 650.823 250.632 641.277ZM945.773 968.105C946.635 969.037 947.324 970.422 948.388 970.831C957.451 974.314 963.731 980.461 967.08 989.6C967.501 990.749 968.153 991.814 969.318 994.175C973.016 980.838 981.265 973.204 993.221 968.893C980.89 964.887 973.12 956.944 969.057 944.776C964.922 956.212 957.945 964.275 945.773 968.105ZM558.014 631.587C557.265 630.477 556.532 628.413 555.763 628.4C543.994 628.195 532.221 628.257 520.378 628.257C520.378 631.12 520.378 633.361 520.378 636.016C525.243 636.016 529.841 636.016 534.847 636.016C534.847 648.197 534.847 659.96 534.847 671.702C538.035 671.702 540.799 671.702 544.017 671.702C544.017 659.725 544.017 647.999 544.017 635.969C547.943 635.969 551.422 635.782 554.869 636.028C557.749 636.233 558.314 634.883 558.014 631.587ZM405.787 641.515C405.787 637.23 405.787 632.945 405.787 628.653C402.283 628.653 399.412 628.653 396.611 628.653C396.611 643.282 396.611 657.513 396.611 671.568C407.216 671.568 417.444 671.568 427.5 671.568C427.5 668.878 427.5 666.626 427.5 663.915C420.095 663.915 413.022 663.915 405.789 663.915C405.789 656.468 405.789 649.489 405.787 641.515ZM695.22 633.841C695.22 632.079 695.22 630.317 695.22 628.698C691.8 628.698 689.039 628.698 686.286 628.698C686.286 643.249 686.286 657.461 686.286 671.746C696.724 671.746 706.816 671.746 717.14 671.746C717.14 669.129 717.14 666.725 717.14 664C709.713 664 702.593 664 695.226 664C695.226 654.044 695.226 644.408 695.22 633.841ZM731.332 671.879C732.21 671.224 733.847 670.577 733.854 669.912C734.003 656.193 733.966 642.471 733.966 628.681C730.67 628.681 727.93 628.681 725.209 628.681C725.209 643.176 725.209 657.378 725.209 671.881C727.147 671.881 728.775 671.881 731.332 671.879ZM562.032 663.679C562.65 666.17 562.737 669.036 564.118 670.987C564.771 671.91 568.554 671.853 569.739 670.849C571.182 669.625 572.18 666.846 571.96 664.9C571.451 660.403 566.872 659.651 562.032 663.679Z" fill="#010101"/>
<path d="M667.229 509.652C673.597 524.666 679.826 539.325 686.402 554.798C674.652 554.798 663.595 554.862 652.539 554.769C647.616 554.728 641.599 556.02 638.089 553.685C634.742 551.458 633.994 545.307 632.131 540.87C629.362 534.28 626.617 527.68 623.782 520.895C603.039 520.895 582.405 520.895 561.147 520.895C563.622 514.793 565.903 509.127 568.216 503.474C571.491 495.471 574.648 487.414 578.208 479.539C578.869 478.075 581.154 476.528 582.76 476.45C589.718 476.112 596.702 476.305 604.366 476.305C597.09 459.129 590.049 442.507 582.584 424.887C580.759 428.983 579.255 432.171 577.901 435.422C561.977 473.653 546.02 511.871 530.263 550.171C528.825 553.666 527.157 554.844 523.4 554.782C509.078 554.545 494.749 554.687 479.959 554.687C480.25 553.573 480.396 552.517 480.793 551.568C509.566 482.84 538.375 414.128 567.09 345.376C568.212 342.689 569.451 341.558 572.505 341.684C579.159 341.96 585.84 341.947 592.496 341.686C595.703 341.559 597.021 342.733 598.238 345.643C618.378 393.802 638.662 441.9 658.919 490.01C661.629 496.445 664.366 502.868 667.229 509.652Z" fill="#FCFCFC"/>
<path d="M449.983 460.924C457.94 479.989 465.854 498.657 473.505 517.431C474.317 519.424 474.266 522.31 473.466 524.326C469.421 534.516 464.996 544.556 460.603 554.889C454.882 554.889 449.199 555.201 443.591 554.692C441.975 554.546 439.918 552.317 439.17 550.569C428.782 526.262 418.572 501.88 408.348 477.503C390.084 433.959 371.84 390.406 353.589 346.857C352.962 345.361 352.337 343.864 351.436 341.707C367.439 341.707 382.74 341.616 398.036 341.874C399.296 341.895 401.031 344.069 401.68 345.607C415.565 378.53 429.327 411.504 443.115 444.468C445.359 449.834 447.615 455.195 449.983 460.924Z" fill="#FCFCFC"/>
<path d="M549.477 343.484C527.848 394.978 506.411 446.133 484.61 498.157C476.431 479.059 468.611 460.916 460.967 442.699C460.442 441.446 460.884 439.502 461.453 438.117C474.028 407.53 486.732 376.997 499.258 346.391C500.698 342.874 502.322 341.36 506.459 341.48C519.603 341.862 532.764 341.617 545.916 341.742C547.172 341.754 548.418 342.656 549.477 343.484Z" fill="#FDFDFD"/>
<path d="M765.103 641.857C768.631 646.234 771.948 650.324 776.233 655.607C776.233 645.754 776.233 637.239 776.233 628.478C779.707 628.478 782.434 628.478 785.457 628.478C785.457 642.854 785.457 657.08 785.457 671.206C780.439 673.153 777.256 671.249 774.307 667.387C768.66 659.993 762.633 652.89 755.773 644.447C755.773 654.34 755.773 662.951 755.773 671.738C752.294 671.738 749.667 671.738 746.594 671.738C746.594 657.492 746.594 643.268 746.594 628.693C750.775 627.565 754.507 627.848 757.404 632.228C759.596 635.543 762.374 638.471 765.103 641.857Z" fill="#F0F1F2"/>
<path d="M643.87 646.66C643.792 655.227 643.792 663.355 643.792 671.707C640.524 671.707 637.92 671.707 634.869 671.707C634.869 657.387 634.869 643.03 634.869 628.65C639.366 627.387 642.65 628.415 645.605 632.343C651.268 639.869 657.473 646.987 664.438 655.474C664.438 645.597 664.438 637.099 664.438 628.452C667.911 628.452 670.655 628.452 673.684 628.452C673.684 642.929 673.684 657.163 673.684 671.323C668.762 673.058 665.514 671.456 662.562 667.463C657.817 661.045 652.578 654.988 647.446 648.863C646.532 647.772 645.127 647.091 643.87 646.66Z" fill="#F2F3F3"/>
<path d="M482.257 671.951C480.813 671.258 478.967 670.583 478.953 669.871C478.708 657.709 478.688 645.543 478.622 633.378C478.614 631.746 478.621 630.115 478.621 628.346C485.307 628.346 491.453 628.261 497.596 628.366C506.795 628.524 512.796 632.049 514.963 638.383C517.374 645.432 514.94 651.855 507.461 657.851C510.343 662.234 513.24 666.638 516.2 671.139C507.547 673.09 507.13 673.335 502.812 665.998C499.376 660.163 495.285 657.521 488.11 659.82C488.11 663.468 488.11 667.521 488.11 671.951C485.949 671.951 484.328 671.951 482.257 671.951ZM505.844 646.818C506.993 637.246 502.983 634.826 488.308 636.34C488.308 641.371 488.308 646.413 488.308 651.739C490.754 651.739 492.894 651.758 495.033 651.735C499.056 651.691 503.187 651.894 505.844 646.818Z" fill="#F4F5F4"/>
<path d="M618.641 634.358C626.702 643.83 627.332 655.133 620.521 663.795C613.564 672.643 600.689 675.275 590.256 669.981C580.636 665.1 576.003 654.381 578.951 643.825C583.498 627.544 604.339 622.408 618.641 634.358ZM588.776 643.563C588.333 645.325 587.588 647.074 587.504 648.853C587.224 654.743 589.109 659.8 594.544 662.686C599.765 665.458 605.228 665.468 610.099 661.872C614.971 658.274 616.474 653.098 615.425 647.247C614.349 641.248 610.722 637.419 604.803 636.03C598.334 634.511 593.257 636.814 588.776 643.563Z" fill="#F4F5F4"/>
<path d="M824.889 671.958C815.751 671.959 807.097 671.959 798.112 671.959C798.112 657.402 798.112 643.028 798.112 628.428C808.754 628.428 819.21 628.428 829.924 628.428C829.924 630.693 829.924 632.971 829.924 635.611C822.489 635.611 815.081 635.611 807.335 635.611C807.335 639.179 807.335 642.393 807.335 645.909C813.907 645.909 820.376 645.909 827.052 645.909C827.052 648.313 827.052 650.43 827.052 653.061C820.544 653.061 813.971 653.061 807.21 653.061C807.21 657.013 807.21 660.453 807.21 664.293C815.112 664.293 822.855 664.293 830.835 664.293C830.835 666.939 830.835 669.188 830.835 671.956C828.948 671.956 827.161 671.956 824.889 671.958Z" fill="#F2F3F3"/>
<path d="M467.984 630.204C467.987 632.15 467.987 633.643 467.987 635.601C460.409 635.601 453.001 635.601 445.262 635.601C445.262 639.131 445.262 642.213 445.262 645.774C451.643 645.774 458.215 645.774 465.026 645.774C465.026 648.492 465.026 650.735 465.026 653.389C458.357 653.389 451.921 653.389 445.24 653.389C445.24 657.062 445.24 660.332 445.24 664.114C452.934 664.114 460.657 664.114 468.694 664.114C468.694 666.836 468.694 669.065 468.694 671.634C457.962 671.634 447.203 671.634 435.984 671.634C435.984 657.413 435.984 643.073 435.984 628.249C446.128 628.249 456.243 628.226 466.357 628.313C466.902 628.318 467.44 629.25 467.984 630.204Z" fill="#F0F1F2"/>
<path d="M298.781 644.779C297.076 654.128 292.761 658.24 283.796 659.111C279.693 659.509 275.552 659.516 271.099 659.716C271.099 663.678 271.099 667.461 271.099 671.577C268.032 671.577 265.291 671.577 262.123 671.577C262.123 657.35 262.123 642.994 262.123 628.719C269.656 628.719 277.168 628.119 284.544 628.869C294.069 629.838 298.056 634.735 298.781 644.779ZM289.251 645.26C288.823 636.726 284.923 634.788 271.241 636.388C271.241 641.431 271.241 646.486 271.241 651.831C274.982 651.831 278.454 652.032 281.892 651.775C285.437 651.51 288.288 649.967 289.251 645.26Z" fill="#F4F5F4"/>
<path d="M379.832 670.491C378.304 663.167 374.023 660.736 367.243 661.997C365.956 662.236 364.55 662.222 363.258 661.991C357.663 660.99 354.368 663.018 352.852 668.686C351.257 674.654 346.27 670.849 342.066 672.251C346.29 662.824 350.149 654.218 354.003 645.61C356.243 640.605 358.383 635.551 360.743 630.603C362.301 627.338 369.974 626.893 371.437 630.091C377.707 643.806 383.749 657.625 390.31 672.384C386.259 671.786 383.126 671.323 379.832 670.491ZM369.299 645.205C368.38 642.951 367.46 640.696 366.204 637.614C363.693 643.653 361.455 649.037 359.074 654.763C363.971 654.763 368.344 654.763 373.161 654.763C371.922 651.618 370.791 648.747 369.299 645.205Z" fill="#F4F5F4"/>
<path d="M316.009 637.067C313.014 641.428 315.278 643.587 318.899 644.795C322.834 646.107 326.959 646.846 330.902 648.137C337.007 650.135 339.762 653.52 339.944 658.697C340.133 664.08 337.051 668.792 331.311 670.846C322.118 674.136 313.384 672.721 304.777 667.469C305.665 665.184 306.478 663.088 307.122 661.43C312.085 662.668 316.777 664.014 321.551 664.934C323.242 665.26 325.39 665.005 326.863 664.182C328.385 663.33 330.098 661.563 330.298 660.012C330.45 658.836 328.619 656.741 327.213 656.158C323.86 654.768 320.236 654.031 316.721 653.031C308.474 650.684 304.762 646.531 305.221 640.161C305.7 633.5 310.817 628.888 318.802 627.917C326.179 627.021 332.336 628.214 337.619 631.668C336.836 633.726 336.034 635.838 335.151 638.16C328.85 635.829 322.768 633.181 316.009 637.067Z" fill="#F4F5F4"/>
<path d="M250.452 641.615C246.508 650.823 242.59 659.635 239.058 668.598C237.781 671.836 235.684 672.003 232.84 672.022C229.955 672.04 228.006 671.706 226.705 668.518C221.258 655.169 215.486 641.953 209.753 628.498C219.534 627.748 219.51 627.758 222.967 635.944C226.245 643.704 229.58 651.441 233.218 659.957C237.248 650.766 240.883 642.446 244.542 634.136C247.432 627.575 247.445 627.58 255.71 628.886C253.995 633.071 252.313 637.174 250.452 641.615Z" fill="#F2F3F3"/>
<path d="M946.116 967.964C957.945 964.275 964.922 956.212 969.057 944.776C973.12 956.944 980.89 964.887 993.221 968.893C981.265 973.204 973.016 980.838 969.318 994.175C968.153 991.814 967.502 990.749 967.081 989.6C963.731 980.461 957.451 974.314 948.388 970.831C947.324 970.422 946.636 969.037 946.116 967.964Z" fill="#7D7D7D"/>
<path d="M558.013 632.047C558.314 634.883 557.749 636.233 554.87 636.028C551.422 635.782 547.944 635.969 544.017 635.969C544.017 647.999 544.017 659.725 544.017 671.702C540.799 671.702 538.035 671.702 534.848 671.702C534.848 659.96 534.848 648.197 534.848 636.016C529.841 636.016 525.244 636.016 520.378 636.016C520.378 633.361 520.378 631.12 520.378 628.257C532.221 628.257 543.994 628.195 555.763 628.4C556.532 628.413 557.265 630.477 558.013 632.047Z" fill="#F0F1F2"/>
<path d="M405.788 642.012C405.789 649.489 405.789 656.468 405.789 663.915C413.022 663.915 420.095 663.915 427.499 663.915C427.499 666.626 427.499 668.878 427.499 671.568C417.444 671.568 407.216 671.568 396.611 671.568C396.611 657.513 396.611 643.282 396.611 628.653C399.412 628.653 402.282 628.653 405.787 628.653C405.787 632.945 405.787 637.23 405.788 642.012Z" fill="#E9EBEB"/>
<path d="M695.223 634.307C695.225 644.408 695.225 654.044 695.225 664C702.592 664 709.713 664 717.14 664C717.14 666.725 717.14 669.129 717.14 671.746C706.816 671.746 696.724 671.746 686.286 671.746C686.286 657.461 686.286 643.249 686.286 628.698C689.039 628.698 691.8 628.698 695.22 628.698C695.22 630.317 695.22 632.079 695.223 634.307Z" fill="#F4F5F4"/>
<path d="M730.867 671.88C728.774 671.881 727.146 671.881 725.209 671.881C725.209 657.378 725.209 643.176 725.209 628.681C727.93 628.681 730.67 628.681 733.966 628.681C733.966 642.471 734.003 656.193 733.854 669.912C733.847 670.577 732.21 671.224 730.867 671.88Z" fill="#F2F3F3"/>
<path d="M562.227 663.373C566.871 659.651 571.451 660.403 571.959 664.9C572.18 666.846 571.181 669.625 569.738 670.849C568.553 671.853 564.771 671.91 564.117 670.987C562.737 669.036 562.65 666.17 562.227 663.373Z" fill="#E9EBEB"/>
<path d="M505.668 647.183C503.187 651.894 499.056 651.691 495.034 651.735C492.894 651.758 490.754 651.739 488.309 651.739C488.309 646.413 488.309 641.371 488.309 636.34C502.984 634.826 506.993 637.246 505.668 647.183Z" fill="#060607"/>
<path d="M588.917 643.207C593.257 636.814 598.333 634.511 604.803 636.03C610.721 637.419 614.348 641.248 615.424 647.247C616.473 653.098 614.971 658.274 610.098 661.872C605.228 665.468 599.765 665.458 594.544 662.686C589.108 659.8 587.223 654.743 587.503 648.853C587.588 647.074 588.333 645.325 588.917 643.207Z" fill="#060607"/>
<path d="M289.192 645.669C288.287 649.967 285.437 651.51 281.892 651.775C278.454 652.032 274.981 651.831 271.24 651.831C271.24 646.486 271.24 641.431 271.24 636.388C284.923 634.788 288.823 636.726 289.192 645.669Z" fill="#060607"/>
<path d="M369.48 645.54C370.791 648.747 371.922 651.618 373.161 654.763C368.344 654.763 363.971 654.763 359.074 654.763C361.455 649.037 363.693 643.653 366.204 637.614C367.46 640.696 368.38 642.951 369.48 645.54Z" fill="#060607"/>
</g>
<defs>
<clipPath id="clip0_389_2">
<rect width="1024" height="1024" fill="white"/>
</clipPath>
</defs>
</svg>
