<svg width="289" height="185" viewBox="0 0 289 185" fill="none" xmlns="http://www.w3.org/2000/svg">
<path d="M272.459 145.1C277.952 158.054 283.327 170.7 289 184.051C278.863 184.051 269.323 184.105 259.784 184.026C255.537 183.99 250.345 185.105 247.317 183.09C244.429 181.169 243.785 175.862 242.176 172.034C239.788 166.348 237.419 160.654 234.974 154.8C217.077 154.8 199.274 154.8 180.934 154.8C183.069 149.535 185.037 144.647 187.033 139.77C189.858 132.865 192.582 125.913 195.653 119.119C196.224 117.856 198.195 116.521 199.58 116.454C205.584 116.162 211.61 116.329 218.222 116.329C211.944 101.51 205.869 87.1689 199.429 71.9669C197.854 75.5007 196.557 78.2513 195.389 81.0557C181.65 114.041 167.882 147.014 154.288 180.058C153.047 183.074 151.608 184.091 148.366 184.037C136.01 183.833 123.648 183.955 110.887 183.955C111.138 182.993 111.263 182.083 111.606 181.264C136.431 121.967 161.287 62.6843 186.061 3.36715C187.029 1.04884 188.098 0.0727136 190.733 0.181772C196.474 0.41953 202.238 0.408524 207.98 0.182693C210.748 0.0738198 211.885 1.08681 212.935 3.59727C230.311 45.1471 247.812 86.6451 265.289 128.153C267.627 133.705 269.988 139.247 272.459 145.1Z" fill="#FCFCFC"/>
<path d="M85.0246 103.059C91.889 119.507 98.717 135.613 105.319 151.811C106.019 153.53 105.975 156.021 105.285 157.76C101.795 166.552 97.9773 175.214 94.1864 184.129C89.251 184.129 84.3481 184.398 79.5094 183.959C78.1147 183.833 76.3399 181.91 75.6954 180.401C66.7327 159.431 57.9234 138.394 49.1023 117.363C33.3449 79.7938 17.6048 42.2177 1.8578 4.64444C1.31688 3.35381 0.778176 2.06228 0 0.200769C13.8078 0.200769 27.009 0.122491 40.2052 0.345319C41.2927 0.363697 42.7894 2.2389 43.3492 3.56629C55.3296 31.9708 67.2024 60.4206 79.0983 88.8608C81.0346 93.4902 82.9811 98.1154 85.0246 103.059Z" fill="#FCFCFC"/>
<path d="M170.866 1.73451C152.205 46.162 133.709 90.2971 114.9 135.182C107.843 118.705 101.097 103.051 94.5016 87.3343C94.048 86.2534 94.4293 84.5761 94.9206 83.381C105.77 56.9919 116.731 30.6488 127.538 4.24258C128.78 1.20781 130.181 -0.0979343 133.751 0.00569948C145.091 0.33498 156.445 0.12392 167.793 0.23153C168.876 0.241799 169.952 1.02024 170.866 1.73451Z" fill="#FDFDFD"/>
</svg>
