<svg width="986" height="191" viewBox="0 0 986 191" fill="none" xmlns="http://www.w3.org/2000/svg">
<path d="M272.459 149.1C277.952 162.054 283.327 174.7 289 188.051C278.863 188.051 269.323 188.105 259.784 188.026C255.537 187.99 250.345 189.105 247.317 187.09C244.429 185.169 243.785 179.862 242.176 176.034C239.788 170.348 237.419 164.654 234.974 158.8C217.077 158.8 199.274 158.8 180.934 158.8C183.069 153.535 185.037 148.647 187.033 143.77C189.858 136.865 192.582 129.913 195.653 123.119C196.224 121.856 198.195 120.521 199.58 120.454C205.584 120.162 211.61 120.329 218.222 120.329C211.944 105.51 205.869 91.1689 199.429 75.9669C197.854 79.5007 196.557 82.2513 195.389 85.0557C181.65 118.041 167.882 151.014 154.288 184.058C153.047 187.074 151.608 188.091 148.366 188.037C136.01 187.833 123.648 187.955 110.887 187.955C111.138 186.993 111.263 186.083 111.606 185.264C136.431 125.967 161.287 66.6843 186.061 7.36715C187.029 5.04884 188.098 4.07271 190.733 4.18177C196.474 4.41953 202.238 4.40852 207.98 4.18269C210.748 4.07382 211.885 5.08681 212.935 7.59727C230.311 49.1471 247.812 90.6451 265.289 132.153C267.627 137.705 269.988 143.247 272.459 149.1Z" fill="black"/>
<path d="M85.0246 107.059C91.889 123.507 98.717 139.613 105.319 155.811C106.019 157.53 105.975 160.021 105.285 161.76C101.795 170.552 97.9773 179.214 94.1864 188.129C89.251 188.129 84.3481 188.398 79.5094 187.959C78.1147 187.833 76.3399 185.91 75.6954 184.402C66.7327 163.431 57.9234 142.394 49.1023 121.363C33.3449 83.7939 17.6048 46.2177 1.8578 8.64451C1.31688 7.35387 0.778176 6.06234 0 4.20083C13.8078 4.20083 27.009 4.12255 40.2052 4.34538C41.2927 4.36376 42.7894 6.23896 43.3492 7.56635C55.3296 35.9708 67.2024 64.4207 79.0983 92.8609C81.0346 97.4902 82.9811 102.115 85.0246 107.059Z" fill="black"/>
<path d="M170.866 5.73451C152.205 50.162 133.709 94.2971 114.9 139.182C107.843 122.705 101.097 107.051 94.5016 91.3343C94.048 90.2534 94.4293 88.5761 94.9206 87.381C105.77 60.9919 116.731 34.6488 127.538 8.24258C128.78 5.20781 130.181 3.90207 133.751 4.0057C145.091 4.33498 156.445 4.12392 167.793 4.23153C168.876 4.2418 169.952 5.02024 170.866 5.73451Z" fill="black"/>
<path d="M416.331 51.144L384.459 141H357.067L325.195 51.144H348.491L370.763 118.984L393.163 51.144H416.331ZM492.679 80.072C492.679 85.2773 491.484 90.056 489.095 94.408C486.705 98.6747 483.036 102.131 478.087 104.776C473.137 107.421 466.993 108.744 459.655 108.744H446.087V141H424.199V51.144H459.655C466.823 51.144 472.881 52.3813 477.831 54.856C482.78 57.3307 486.492 60.744 488.967 65.096C491.441 69.448 492.679 74.44 492.679 80.072ZM457.991 91.336C462.172 91.336 465.287 90.3547 467.335 88.392C469.383 86.4293 470.407 83.656 470.407 80.072C470.407 76.488 469.383 73.7147 467.335 71.752C465.287 69.7893 462.172 68.808 457.991 68.808H446.087V91.336H457.991ZM535.306 141.896C528.735 141.896 522.847 140.829 517.642 138.696C512.436 136.563 508.255 133.405 505.098 129.224C502.026 125.043 500.404 120.008 500.234 114.12H523.53C523.871 117.448 525.023 120.008 526.986 121.8C528.948 123.507 531.508 124.36 534.666 124.36C537.908 124.36 540.468 123.635 542.346 122.184C544.223 120.648 545.162 118.557 545.162 115.912C545.162 113.693 544.394 111.859 542.858 110.408C541.407 108.957 539.572 107.763 537.354 106.824C535.22 105.885 532.148 104.819 528.138 103.624C522.335 101.832 517.599 100.04 513.93 98.248C510.26 96.456 507.103 93.8107 504.458 90.312C501.812 86.8133 500.49 82.248 500.49 76.616C500.49 68.2533 503.519 61.7253 509.578 57.032C515.636 52.2533 523.53 49.864 533.258 49.864C543.156 49.864 551.135 52.2533 557.194 57.032C563.252 61.7253 566.495 68.296 566.922 76.744H543.242C543.071 73.8427 542.004 71.5813 540.042 69.96C538.079 68.2533 535.562 67.4 532.49 67.4C529.844 67.4 527.711 68.1253 526.09 69.576C524.468 70.9413 523.658 72.9467 523.658 75.592C523.658 78.4933 525.023 80.7547 527.754 82.376C530.484 83.9973 534.751 85.7467 540.554 87.624C546.356 89.5867 551.05 91.464 554.634 93.256C558.303 95.048 561.46 97.6507 564.106 101.064C566.751 104.477 568.074 108.872 568.074 114.248C568.074 119.368 566.751 124.019 564.106 128.2C561.546 132.381 557.791 135.709 552.842 138.184C547.892 140.659 542.047 141.896 535.306 141.896ZM636.2 125.128H602.664L597.288 141H574.376L606.888 51.144H632.232L664.744 141H641.576L636.2 125.128ZM630.568 108.232L619.432 75.336L608.424 108.232H630.568ZM695.247 124.104H723.919V141H673.359V51.144H695.247V124.104ZM754.967 68.68V86.856H784.279V103.752H754.967V123.464H788.119V141H733.079V51.144H788.119V68.68H754.967ZM846.873 141L828.185 107.08H822.937V141H801.049V51.144H837.785C844.867 51.144 850.883 52.3813 855.833 54.856C860.867 57.3307 864.622 60.744 867.097 65.096C869.571 69.3627 870.809 74.1413 870.809 79.432C870.809 85.4053 869.102 90.7387 865.689 95.432C862.361 100.125 857.411 103.453 850.841 105.416L871.577 141H846.873ZM822.937 91.592H836.505C840.515 91.592 843.502 90.6107 845.465 88.648C847.513 86.6853 848.537 83.912 848.537 80.328C848.537 76.9147 847.513 74.2267 845.465 72.264C843.502 70.3013 840.515 69.32 836.505 69.32H822.937V91.592ZM947.909 51.144V68.68H924.101V141H902.213V68.68H878.405V51.144H947.909Z" fill="black"/>
</svg>
